HIERARCHY
ROOT root
{
	OFFSET 0.000000 0.000000 0.000000
	CHANNELS 6 Xposition Yposition Zposition Zrotation Yrotation Xrotation
	JOINT lhip
	{
		OFFSET 0.058581 -0.082280 -0.017664
		CHANNELS 3 Zrotation Yrotation Xrotation
		JOINT lknee
		{
			OFFSET 0.043451 -0.386469 0.008037
			CHANNELS 3 Zrotation Yrotation Xrotation
			JOINT lankle
			{
				OFFSET -0.014790 -0.426874 -0.037428
				CHANNELS 3 Zrotation Yrotation Xrotation
				JOINT ltoe
				{
					OFFSET 0.041054 -0.060286 0.122042
					CHANNELS 3 Zrotation Yrotation Xrotation
					End Site
					{
						OFFSET 0.000000 0.000000 0.000000
					}
				}
			}
		}
	}
	JOINT rhip
	{
		OFFSET -0.060310 -0.090513 -0.013543
		CHANNELS 3 Zrotation Yrotation Xrotation
		JOINT rknee
		{
			OFFSET -0.043257 -0.383688 -0.004843
			CHANNELS 3 Zrotation Yrotation Xrotation
			JOINT rankle
			{
				OFFSET 0.019056 -0.420046 -0.034562
				CHANNELS 3 Zrotation Yrotation Xrotation
				JOINT rtoe
				{
					OFFSET -0.034840 -0.062106 0.130323
					CHANNELS 3 Zrotation Yrotation Xrotation
					End Site
					{
						OFFSET 0.000000 0.000000 0.000000
					}
				}
			}
		}
	}
	JOINT lowerback
	{
		OFFSET 0.004439 0.124404 -0.038385
		CHANNELS 3 Zrotation Yrotation Xrotation
		JOINT upperback
		{
			OFFSET 0.004488 0.137956 0.026820
			CHANNELS 3 Zrotation Yrotation Xrotation
			JOINT chest
			{
				OFFSET -0.002265 0.056032 0.002855
				CHANNELS 3 Zrotation Yrotation Xrotation
				JOINT lowerneck
				{
					OFFSET -0.013390 0.211636 -0.033468
					CHANNELS 3 Zrotation Yrotation Xrotation
					JOINT upperneck
					{
						OFFSET 0.010113 0.088937 0.050410
						CHANNELS 3 Zrotation Yrotation Xrotation
						End Site
						{
							OFFSET 0.000000 0.000000 0.000000
						}
					}
				}
				JOINT lclavicle
				{
					OFFSET 0.071702 0.114000 -0.018898
					CHANNELS 3 Zrotation Yrotation Xrotation
					JOINT lshoulder
					{
						OFFSET 0.122921 0.045205 -0.019046
						CHANNELS 3 Zrotation Yrotation Xrotation
						JOINT lelbow
						{
							OFFSET 0.255332 -0.015649 -0.022946
							CHANNELS 3 Zrotation Yrotation Xrotation
							JOINT lwrist
							{
								OFFSET 0.265709 0.012698 -0.007375
								CHANNELS 3 Zrotation Yrotation Xrotation
								End Site
								{
									OFFSET 0.000000 0.000000 0.000000
								}
							}
						}
					}
				}
				JOINT rclavicle
				{
					OFFSET -0.082954 0.112472 -0.023707
					CHANNELS 3 Zrotation Yrotation Xrotation
					JOINT rshoulder
					{
						OFFSET -0.113228 0.046853 -0.008472
						CHANNELS 3 Zrotation Yrotation Xrotation
						JOINT relbow
						{
							OFFSET -0.260127 -0.014369 -0.031269
							CHANNELS 3 Zrotation Yrotation Xrotation
							JOINT rwrist
							{
								OFFSET -0.269108 0.006794 -0.006027
								CHANNELS 3 Zrotation Yrotation Xrotation
								End Site
								{
									OFFSET 0.000000 0.000000 0.000000
								}
							}
						}
					}
				}
			}
		}
	}
}
MOTION
Frames: 17
Frame Time: 0.033333
0.576713 0.226799 0.989269 85.646109 3.559494 98.824909 5.857167 2.972001 -2.166332 3.923707 7.217679 -9.016588 -1.384628 5.779235 -2.880029 0.000000 -0.000000 0.000000 -2.032070 -0.983646 -8.122136 -1.325611 -6.014122 0.447366 9.116660 1.207826 -3.333264 0.000000 -0.000000 0.000000 -0.666226 1.248585 -6.279389 4.222140 -2.906671 5.045269 -0.200272 2.957863 -7.135721 -2.033659 3.321875 16.628419 1.713590 11.932813 8.822091 -14.784156 5.722122 -5.904834 -63.169813 -7.969914 28.573803 167.941825 -59.474025 -136.987915 7.265685 -13.265068 -19.812093 16.337826 2.337367 -3.336951 37.074120 36.777939 15.977778 177.887475 64.763565 -161.843390 -8.456033 16.308122 0.746605 
0.577070 0.226753 0.989124 85.982095 3.569190 98.897580 5.917151 2.897862 -2.248358 3.907422 6.986172 -9.086840 -1.315659 5.773236 -2.885533 0.000000 -0.000000 0.000000 -1.965840 -1.079243 -8.081849 -1.329255 -6.036375 0.405452 9.015276 1.024846 -3.404699 0.000000 -0.000000 0.000000 -0.766553 1.095379 -6.159108 4.292584 -3.111100 4.595571 -0.179958 2.864581 -7.091717 -1.977604 3.518255 16.336720 2.108972 12.046449 9.407083 -15.242154 6.175171 -5.949984 -62.805666 -7.636531 28.891275 167.873609 -59.757912 -137.390987 7.111726 -12.801065 -19.082969 17.231754 1.819007 -3.330954 37.738771 35.384122 17.124428 176.284683 65.162937 -164.070202 -8.039603 15.777854 0.659506 
0.577405 0.226836 0.988907 86.282620 3.516513 98.947917 5.899489 2.816671 -2.298852 3.889977 6.855472 -9.160903 -1.278938 5.691253 -2.862823 0.000000 -0.000000 0.000000 -1.993216 -1.130908 -8.036470 -1.340029 -6.125283 0.388494 8.904667 0.909215 -3.500470 0.000000 -0.000000 0.000000 -0.900119 0.995263 -6.105436 4.377013 -3.265403 4.364869 -0.217142 2.796510 -7.104200 -1.822754 3.774058 15.906877 2.415636 12.060853 9.936622 -15.594475 6.528020 -6.026419 -62.467450 -7.530406 29.330766 167.575582 -60.412476 -137.447789 7.404895 -13.108882 -18.765081 18.012579 1.278487 -3.458932 38.609349 33.901613 18.300151 175.488903 65.449986 -165.155442 -8.238407 15.845691 0.175133 
0.577630 0.226925 0.988635 86.505384 3.460417 98.946361 5.884903 2.845553 -2.281634 3.820540 6.611433 -9.259441 -1.224137 5.737279 -2.890265 0.000000 -0.000000 0.000000 -2.011696 -1.206619 -7.962555 -1.363384 -6.071467 0.347421 8.734046 0.777655 -3.626357 0.000000 -0.000000 0.000000 -0.987257 0.946531 -6.019586 4.435252 -3.397502 4.242307 -0.238904 2.713485 -7.156329 -1.836081 3.920101 15.520061 2.670669 12.243822 10.253718 -16.131641 6.654268 -6.032823 -61.807443 -7.390826 29.527117 167.283878 -60.662142 -137.710684 7.174487 -12.773209 -18.165185 18.802155 0.924483 -3.645486 38.875730 32.719175 19.093733 174.478068 65.634630 -166.798742 -8.673520 15.547101 0.153486 
0.577559 0.226973 0.988526 86.650706 3.399381 98.996335 5.900564 2.853611 -2.360045 3.684789 6.454501 -9.275553 -1.215650 5.757560 -2.878194 0.000000 -0.000000 0.000000 -2.056149 -1.220695 -7.975759 -1.371128 -6.114937 0.333966 8.642552 0.704181 -3.673240 0.000000 -0.000000 0.000000 -1.119759 0.907701 -6.100023 4.514749 -3.553207 4.472047 -0.265272 2.630500 -7.377999 -1.840557 4.207327 15.115345 2.945778 12.305820 10.423575 -16.511992 6.719434 -5.967167 -61.281038 -7.357032 29.549101 167.110156 -60.890532 -137.906810 7.044084 -12.636676 -17.711773 19.501140 0.666119 -3.719541 39.324671 31.809248 19.640491 174.068420 65.797924 -167.630754 -9.026469 15.396502 -0.082083 
0.577117 0.226858 0.988589 86.721084 3.345640 99.127096 5.889567 2.788765 -2.543406 3.628911 6.401396 -9.241781 -1.191062 5.794252 -2.862366 0.000000 -0.000000 0.000000 -2.097863 -1.167838 -8.112867 -1.378051 -6.161732 0.339655 8.612211 0.614652 -3.670883 0.000000 -0.000000 0.000000 -1.259690 0.883083 -6.258464 4.604774 -3.721544 4.587509 -0.269399 2.521875 -7.417603 -1.781485 4.488860 14.706191 3.126003 12.464619 10.594948 -16.724496 6.824279 -5.979683 -60.962298 -7.354139 29.518588 167.098565 -60.982815 -138.051215 7.047679 -12.548372 -17.341854 20.035317 0.465365 -3.876926 39.814781 31.335104 20.105793 173.859706 65.917661 -167.924697 -9.296801 15.336886 -0.120335 
0.577004 0.226812 0.988642 86.717463 3.297075 99.154804 5.854565 2.767910 -2.547550 3.607987 6.355295 -9.275897 -1.072556 5.823277 -2.831001 0.000000 -0.000000 0.000000 -2.154603 -1.133913 -8.095873 -1.351964 -6.158876 0.267821 8.543496 0.558778 -3.676711 0.000000 -0.000000 0.000000 -1.269326 0.794583 -6.303516 4.605266 -3.866954 4.630674 -0.361116 2.437844 -7.460556 -1.676862 4.664338 14.371147 3.216061 12.600007 10.710529 -16.780107 6.993033 -5.946161 -60.683783 -7.238971 29.518703 167.085517 -60.708565 -138.217611 6.423763 -11.971208 -17.266723 20.381400 0.351909 -3.880748 40.578872 31.150562 20.675838 174.419183 65.999840 -167.616920 -9.180002 14.933512 -0.177724 
0.576508 0.227079 0.988611 86.370979 3.320241 98.904509 5.761524 2.868540 -2.176500 3.717524 6.506912 -9.411608 -1.016839 5.880123 -2.818292 0.000000 -0.000000 0.000000 -2.231427 -0.931077 -7.945802 -1.294645 -6.119449 0.336971 8.538944 0.653603 -3.658132 0.000000 -0.000000 0.000000 -1.132119 0.841111 -5.830461 4.543072 -3.761866 4.439138 -0.445519 2.490405 -7.387593 -1.413030 4.880507 14.078825 3.225263 12.370174 10.620959 -16.743929 6.976524 -6.116592 -60.759653 -7.347854 29.689312 166.597944 -60.689629 -137.672944 6.599256 -12.401467 -17.185576 20.514302 0.471484 -4.006435 41.105056 30.884996 21.125504 175.442185 65.956418 -166.674876 -9.167854 14.805241 -0.582008 
0.576356 0.227044 0.988621 86.281544 3.326355 98.892089 5.741534 2.876455 -2.147621 3.751080 6.585562 -9.428431 -1.044947 5.859958 -2.789962 0.000000 -0.000000 0.000000 -2.223809 -0.901749 -7.950728 -1.313872 -6.169544 0.315376 8.520238 0.725542 -3.640030 0.000000 -0.000000 0.000000 -1.139689 0.858989 -5.927970 4.531495 -3.776986 4.675546 -0.478097 2.492796 -7.468115 -1.263552 4.944709 13.863984 3.249063 12.164110 10.565793 -16.687369 6.860784 -6.117667 -60.869617 -7.570783 29.688765 166.352006 -60.709886 -137.345198 6.720580 -12.704781 -17.076397 20.557977 0.558180 -4.005883 41.418480 30.800685 21.223915 176.144042 65.939847 -165.954912 -9.261651 14.812216 -0.734686 
0.576278 0.226775 0.988658 86.264842 3.332054 98.874744 5.756764 2.885204 -2.152019 3.761101 6.616397 -9.393484 -1.072835 5.844242 -2.769384 0.000000 -0.000000 0.000000 -2.210452 -0.886839 -7.918261 -1.303442 -6.147243 0.276088 8.526617 0.697708 -3.629909 0.000000 -0.000000 0.000000 -1.188165 0.855875 -5.987481 4.524483 -3.763807 4.722366 -0.484846 2.466318 -7.373504 -1.152175 4.861286 13.600420 3.185146 12.011620 10.517778 -16.647117 6.817581 -6.197019 -60.996703 -7.815041 29.723910 166.285983 -60.720401 -137.255206 6.777190 -12.735518 -16.994368 20.571078 0.499107 -4.107263 41.669771 30.830370 21.270536 176.557827 65.965816 -165.433585 -9.389770 14.838621 -0.845123 
0.576334 0.226385 0.988669 86.330480 3.342113 98.901848 5.808212 2.858329 -2.235088 3.736353 6.683339 -9.312180 -1.108028 5.747773 -2.779421 0.000000 -0.000000 0.000000 -2.174320 -0.939831 -7.912715 -1.302384 -6.216370 0.248921 8.526767 0.757161 -3.644881 0.000000 -0.000000 0.000000 -1.285988 0.843331 -6.081192 4.528180 -3.804572 4.777318 -0.466484 2.419000 -7.372354 -1.006438 4.815605 13.496845 3.243378 11.761373 10.495209 -16.593522 6.805941 -6.291218 -61.199968 -8.008534 29.829966 166.025564 -60.723124 -136.957001 6.696352 -12.902537 -16.725102 20.567556 0.448281 -4.176183 41.811484 30.772614 21.305500 177.213468 65.962859 -164.848289 -9.357093 14.790254 -1.051691 
0.576553 0.225984 0.988575 86.402611 3.355290 98.893992 5.880398 2.847068 -2.228658 3.664321 6.757122 -9.295647 -1.122155 5.665652 -2.769578 0.000000 -0.000000 0.000000 -2.138255 -0.923250 -7.867444 -1.306176 -6.294848 0.247691 8.512287 0.787475 -3.681208 0.000000 -0.000000 0.000000 -1.426091 0.800106 -6.154059 4.573581 -3.850072 4.897478 -0.418296 2.386516 -7.466191 -0.916159 4.755955 13.556886 3.361016 11.550297 10.278300 -16.451069 6.865900 -6.278079 -61.476435 -8.177470 29.966699 165.851896 -60.710343 -136.719087 6.668741 -12.859666 -16.702239 20.464572 0.347724 -4.195014 42.018133 30.672319 21.389455 178.003548 65.971511 -164.202472 -9.460975 14.626389 -1.542229 
0.577161 0.225388 0.988388 86.654473 3.404671 98.992994 5.980032 2.768445 -2.370563 3.723070 6.706514 -9.223674 -1.193668 5.579111 -2.778458 0.000000 -0.000000 0.000000 -1.990803 -0.990582 -7.822879 -1.340190 -6.384923 0.135727 8.489290 0.688948 -3.716503 0.000000 -0.000000 0.000000 -1.552176 0.661786 -6.203017 4.628680 -3.945125 4.671275 -0.335470 2.331925 -7.468177 -0.869066 4.632637 13.571534 3.434034 11.340950 10.222278 -16.301538 6.978569 -6.245038 -61.701105 -8.171646 30.026448 166.001941 -60.663360 -136.684758 6.770053 -12.848667 -16.862723 20.420146 0.150622 -4.202891 42.185546 30.491148 21.375987 178.144907 65.859706 -163.999054 -9.463621 14.512166 -1.719378 
0.577228 0.225194 0.988209 86.661365 3.428754 98.824535 5.995906 2.786081 -2.165775 3.768172 6.716872 -9.262861 -1.189075 5.556606 -2.791350 0.000000 -0.000000 0.000000 -1.975836 -0.961788 -7.663041 -1.319943 -6.412301 0.205483 8.469840 0.702421 -3.757882 0.000000 -0.000000 0.000000 -1.675487 0.699109 -6.035466 4.652906 -3.926631 4.647642 -0.287188 2.319394 -7.396669 -0.794280 4.558193 13.508847 3.582798 11.176273 10.070773 -16.237416 6.912631 -6.338381 -61.869007 -8.328067 30.270356 165.766984 -60.675176 -136.478460 6.691226 -12.744537 -16.727334 20.418355 0.118466 -4.359237 42.076104 30.263616 21.362112 178.906842 65.770850 -163.392476 -9.249936 14.240127 -1.872609 
0.577359 0.224734 0.988071 86.702997 3.455060 98.812730 6.033402 2.702714 -2.179379 3.830428 6.792658 -9.197941 -1.115981 5.468550 -2.813458 0.000000 -0.000000 0.000000 -1.935820 -0.922650 -7.633767 -1.293705 -6.504772 0.211565 8.421730 0.736861 -3.781107 0.000000 -0.000000 0.000000 -1.880149 0.733409 -6.193539 4.716111 -3.937975 4.877561 -0.229359 2.335437 -7.454593 -0.711356 4.487676 13.324279 3.780130 10.921136 10.107484 -16.152016 6.872588 -6.389861 -61.992248 -8.488756 30.599517 165.363740 -60.698834 -136.222021 6.708462 -12.578295 -16.348754 20.399365 0.135550 -4.520044 41.905056 30.048957 21.456258 -179.669991 65.641142 -162.474999 -9.107998 13.506712 -2.635053 
0.577561 0.224331 0.988017 86.661683 3.490009 98.784191 6.085093 2.624050 -2.105354 3.837751 6.954147 -9.220379 -1.008550 5.373555 -2.810870 0.000000 -0.000000 0.000000 -1.912818 -0.910702 -7.576822 -1.237134 -6.589823 0.182628 8.405050 0.866866 -3.770540 0.000000 -0.000000 0.000000 -2.052307 0.836127 -6.305245 4.752858 -3.881664 4.999045 -0.185692 2.395183 -7.538847 -0.621073 4.327850 13.236942 3.992728 10.620754 10.178133 -16.088443 6.742521 -6.412256 -62.044612 -8.624408 30.967247 164.771717 -60.754634 -135.802387 6.448143 -12.578168 -16.150747 20.433867 0.245418 -4.648356 41.518420 29.905125 21.306803 -177.995886 65.404084 -161.184449 -8.297229 12.545374 -2.719542 
0.578235 0.223795 0.987786 86.785975 3.507272 99.028170 6.195627 2.460897 -2.341900 3.753636 7.128745 -9.193098 -0.895883 5.228953 -2.826684 0.000000 -0.000000 0.000000 -1.810054 -1.064001 -7.716915 -1.271896 -6.706734 0.064526 8.378106 1.016235 -3.759198 0.000000 -0.000000 0.000000 -2.254714 0.794061 -6.978026 4.803351 -3.953897 5.435368 -0.151165 2.472511 -7.703693 -0.515323 4.184073 13.142312 4.109623 10.379876 10.226511 -15.940751 6.573767 -6.299726 -62.134472 -8.674733 31.037695 164.589121 -60.741723 -135.540711 6.011802 -12.456005 -16.112555 20.453829 0.466859 -4.593349 41.209233 30.274260 20.948859 -176.424880 65.225587 -159.570048 -7.304302 11.050477 -2.225659 
